<?xml version="1.0" standalone="no"?>
<!DOCTYPE svg PUBLIC "-//W3C//DTD SVG 20010904//EN"
 "http://www.w3.org/TR/2001/REC-SVG-20010904/DTD/svg10.dtd">
<svg version="1.0" xmlns="http://www.w3.org/2000/svg"
 width="236.000000pt" height="236.000000pt" viewBox="0 0 236.000000 236.000000"
 preserveAspectRatio="xMidYMid meet">
<metadata>
Created by potrace 1.14, written by Peter Selinger 2001-2017
</metadata>
<g transform="translate(0.000000,236.000000) scale(0.100000,-0.100000)"
fill="#000000" stroke="none">
<path d="M1137 2354 c-1 -1 -29 -4 -62 -5 -33 -1 -103 -13 -155 -25 -235 -55
-409 -153 -578 -324 -210 -211 -330 -492 -336 -790 -1 -41 0 -81 2 -87 3 -10
77 -13 322 -13 l318 0 17 68 c9 37 18 74 20 82 48 205 187 727 199 745 31 47
101 44 137 -5 13 -18 20 -51 24 -120 4 -52 8 -106 10 -119 3 -14 7 -63 10
-110 3 -47 8 -104 10 -126 9 -96 16 -183 31 -375 3 -47 8 -96 9 -110 2 -14 4
-42 4 -62 1 -58 16 -45 30 24 6 35 13 72 16 83 2 11 18 85 35 165 17 80 34
156 36 170 32 177 47 224 80 239 73 33 112 0 160 -134 19 -55 61 -171 92 -257
l57 -158 125 -1 c69 0 232 -2 363 -4 272 -3 241 -19 237 115 -5 221 -86 459
-217 641 -58 82 -179 206 -253 262 -107 80 -294 171 -396 191 -10 3 -41 10
-69 16 -71 17 -268 33 -278 24z"/>
<path d="M869 1278 c-18 -73 -34 -135 -34 -138 -1 -3 -6 -23 -13 -45 -6 -22
-16 -59 -22 -83 -19 -75 -14 -74 -410 -76 -192 -1 -351 -4 -355 -7 -9 -10 52
-187 95 -275 101 -206 290 -400 493 -508 90 -47 242 -103 303 -112 27 -3 52
-8 55 -10 11 -6 108 -16 177 -18 78 -2 186 9 257 26 28 7 52 13 55 13 176 35
380 153 536 309 151 152 244 307 304 514 l19 62 -142 1 c-457 2 -645 7 -665
18 -28 15 -40 39 -93 191 l-43 124 -13 -43 c-7 -24 -15 -62 -19 -84 -3 -23 -7
-44 -9 -48 -2 -3 -7 -20 -10 -38 -4 -25 -58 -281 -90 -431 -2 -8 -20 -91 -39
-185 -31 -145 -40 -173 -62 -192 -51 -46 -127 -16 -138 55 -7 46 -13 113 -21
217 -3 44 -8 103 -10 130 -13 155 -16 183 -20 215 -2 19 -7 73 -10 120 -3 47
-7 105 -10 130 -2 25 -7 77 -10 115 -9 107 -17 180 -20 183 -1 2 -18 -57 -36
-130z"/>
</g>
</svg>
